<svg width="137px" height="22px" viewBox="0 0 137 22" version="1.1" xmlns="http://www.w3.org/2000/svg"><title>Totally Money Logo</title><g id="Signed-in" stroke="none" stroke-width="1" fill="none" fill-rule="evenodd"><g id="tm_logo_id" transform="translate(-63.000000, -23.000000)" fill="#fff" data-testid="tm_logo_group"><g id="logo_svg" transform="translate(63.000000, 23.000000)"><g id="Group-25"><path d="M12.4465857,10.1858008 C12.4465857,12.2864593 13.8774156,13.8225012 15.8894881,13.8225012 C17.9240934,13.8225012 19.3547953,12.2864593 19.3547953,10.1858008 C19.3547953,8.08501294 17.9240934,6.54897107 15.8894881,6.54897107 C13.8774156,6.54897107 12.4465857,8.08501294 12.4465857,10.1858008 M21.7917895,10.2083079 C21.7917895,13.5965252 19.3325186,16.1716428 15.8894881,16.1716428 C12.4688624,16.1716428 10.0095915,13.5965252 10.0095915,10.2083079 C10.0095915,6.82009055 12.4688624,4.2451023 15.8894881,4.2451023 C19.3325186,4.2451023 21.7917895,6.82009055 21.7917895,10.2083079" id="Fill-2"></path><path d="M68.852548,16.1290475 C68.852548,19.8333984 66.0578463,21.730976 63.240996,21.730976 C60.8486832,21.730976 58.3447309,20.375508 57.6741254,17.4616204 L60.0215007,16.6485207 C60.3792081,18.4104092 61.8101661,19.4268485 63.3527635,19.4268485 C64.9624472,19.4268485 66.4155538,18.3199929 66.4155538,16.1290475 L66.4155538,13.7771896 C65.767225,14.9066816 64.6494211,15.8103269 63.0397375,15.8103269 C60.9158974,15.8103269 58.568266,14.3420649 58.568266,11.0894073 L58.568266,4.53869003 L61.0499417,4.53869003 L61.0499417,10.7052352 C61.0499417,12.4444873 62.056106,13.3932761 63.4421264,13.3932761 C64.9848519,13.3932761 66.3710004,12.21877 66.3710004,10.0050588 L66.3710004,4.53869003 L68.852548,4.53869003 L68.852548,16.1290475 Z" id="Fill-4"></path><path d="M37.0678447,13.8901776 C35.3910749,13.8901776 33.7588585,12.6703986 33.7588585,10.1858267 C33.7588585,7.65598189 35.4356283,6.48121707 37.0899934,6.48121707 C38.7892959,6.48121707 40.4883424,7.67848895 40.4883424,10.1631903 C40.4883424,12.6478916 38.7668912,13.8901776 37.0678447,13.8901776 M44.5702277,13.6671766 C44.3454122,13.7922589 44.0422443,13.8901776 43.7973286,13.8901776 C43.372535,13.8901776 42.96989,13.6418238 42.96989,12.8512312 L42.96989,4.5387547 L40.5328958,4.5387547 L40.5328958,5.93910748 C39.7503947,4.67405574 38.2527347,4.24512817 36.9558211,4.24512817 C34.1612474,4.24512817 31.2994596,6.21022695 31.2994596,10.2309701 C31.2994596,14.0935172 33.960245,16.1716686 36.6877325,16.1716686 C38.1856485,16.1716686 39.8400136,15.5392721 40.8013685,14.1839334 C41.1143945,15.5392721 42.2768798,16.1491616 43.372535,16.1491616 C44.0235523,16.1491616 44.6918533,15.9370261 45.2086984,15.4679998 C44.9093712,14.9350741 44.6913412,14.3321696 44.5702277,13.6671766" id="Fill-7"></path><path d="M51.145375,13.7783796 C50.8108404,13.9131632 50.476818,13.980555 50.1646881,13.980555 C49.3600383,13.980555 48.7339862,13.5287324 48.7339862,12.2413029 L48.7339862,0.111293509 L46.2523106,0.111293509 L46.2523106,12.3768627 C46.2523106,15.0874106 47.9290804,16.1716298 49.7624272,16.1716298 C50.476818,16.1716298 51.211565,16.0007573 51.8867795,15.6822954 C51.5734973,15.1884337 51.2993915,14.5623754 51.145375,13.7783796" id="Fill-9"></path><path d="M91.6463622,10.1858008 C91.6463622,12.2864593 93.0771921,13.8225012 95.0893927,13.8225012 C97.12387,13.8225012 98.5546999,12.2864593 98.5546999,10.1858008 C98.5546999,8.08501294 97.12387,6.54897107 95.0893927,6.54897107 C93.0771921,6.54897107 91.6463622,8.08501294 91.6463622,10.1858008 M100.991694,10.2083079 C100.991694,13.5965252 98.5322951,16.1716428 95.0893927,16.1716428 C91.668767,16.1716428 89.2094961,13.5965252 89.2094961,10.2083079 C89.2094961,6.82009055 91.668767,4.2451023 95.0893927,4.2451023 C98.5322951,4.2451023 100.991694,6.82009055 100.991694,10.2083079" id="Fill-11"></path><path d="M102.318925,4.53869003 L104.755919,4.53869003 L104.755919,6.16501881 C105.583101,4.80968015 106.96925,4.2450635 108.332993,4.2450635 C110.412152,4.2450635 112.401948,5.64541627 112.401948,8.49165334 L112.401948,15.9231209 L109.9204,15.9231209 L109.9204,9.37253293 C109.9204,7.45244826 108.914236,6.63934854 107.639983,6.63934854 C106.097386,6.63934854 104.8006,7.83662041 104.8006,10.0276952 L104.8006,15.9231209 L102.318925,15.9231209 L102.318925,4.53869003 Z" id="Fill-13"></path><path d="M116.345001,9.25962253 L122.135535,9.25962253 C122.090725,7.38468133 120.794068,6.48116533 119.363238,6.48116533 C117.910003,6.48116533 116.546259,7.40744708 116.345001,9.25962253 M124.527719,11.3376446 L116.412087,11.3376446 C116.792071,13.1221696 118.222901,13.8224753 119.676264,13.8224753 C120.905835,13.8224753 122.068448,13.3255092 122.85095,12.2186536 L124.438228,13.7772025 C123.18638,15.3810242 121.464801,16.1717462 119.586773,16.1717462 C116.658027,16.1717462 113.729153,14.070829 113.729153,10.1631385 C113.729153,6.27795508 116.546259,4.24507643 119.475005,4.24507643 C122.224897,4.24507643 124.61721,6.07461548 124.61721,9.91465546 C124.61721,10.2986983 124.61721,10.7505209 124.527719,11.3376446" id="Fill-15"></path><path d="M136.214896,15.607039 C136.214896,19.3113899 133.420322,21.2089675 130.603216,21.2089675 C128.211031,21.2089675 125.707079,19.8534995 125.036345,16.9396119 L127.383848,16.1265122 C127.741556,17.8884008 129.172386,18.9048401 130.714983,18.9048401 C132.324795,18.9048401 133.77803,17.7979845 133.77803,15.607039 L133.77803,13.7772413 C133.129573,14.9067333 132.011769,15.8102493 130.402085,15.8102493 C128.278117,15.8102493 125.930614,14.3421167 125.930614,11.0893297 L125.930614,4.53874177 L128.412289,4.53874177 L128.412289,10.7051576 C128.412289,12.444539 129.418326,13.3933278 130.804474,13.3933278 C132.3472,13.3933278 133.73322,12.2186924 133.73322,10.0051105 L133.73322,4.53874177 L136.214896,4.53874177 L136.214896,15.607039 Z" id="Fill-17"></path><path d="M85.0205162,0.111332314 L79.9231207,9.05620532 L74.8480018,0.111332314 L74.5573805,0.111332314 L71.9880064,0.111332314 L71.98647,0.111332314 L71.98647,12.2885548 C71.9703386,13.5063935 71.3610581,13.9560172 70.5689549,13.9785242 L70.5689549,16.1571813 C70.6872519,16.1657185 70.8052928,16.1716686 70.9228216,16.1716686 C71.4331373,16.1716686 71.9301382,16.0903069 72.3861704,15.9231856 C73.6273923,15.4685172 74.5573805,14.3589452 74.5573805,12.3769015 L74.5573805,4.96781162 L78.7605073,12.3769015 L81.1080107,12.3769015 L85.3110095,4.96781162 L85.3110095,15.9231856 L87.882176,15.9231856 L87.882176,0.111332314 L85.0205162,0.111332314 Z" id="Fill-19"></path><path d="M57.3665661,13.8859349 C57.1425188,13.9472472 56.9215442,13.9806197 56.7111958,13.9806197 C55.906418,13.9806197 55.2803659,13.528797 55.2803659,12.2412382 L55.2803659,0.111358184 L52.7986903,0.111358184 L52.7986903,12.376798 C52.7986903,15.0874753 54.4755881,16.1716945 56.3088069,16.1716945 C57.0133395,16.1716945 57.7378444,16.0048318 58.4056333,15.6946484 C58.0171994,15.2160501 57.6463051,14.618837 57.3665661,13.8859349" id="Fill-21"></path><path d="M30.1653195,13.6109995 C29.7115917,13.8276623 29.2423727,13.9806844 28.7918457,13.9806844 C27.9199817,13.9806844 27.2045668,13.506096 27.2045668,12.2413029 L27.2045668,6.84258467 L30.3569759,6.84258467 L30.3569759,6.50523754 L30.3569759,4.5387159 L27.2045668,4.5387159 L27.2045668,1.62469897 L24.7452959,1.62469897 L24.7452959,4.5387159 L22.3084297,4.5387159 L22.3084297,6.84258467 L24.7452959,6.84258467 L24.7452959,12.3767333 C24.7452959,14.9971237 26.5338332,16.1716298 28.456671,16.1716298 C29.3730883,16.1716298 30.3853979,15.8857643 31.2125804,15.3887982 L31.2089957,15.3823307 C30.7806173,14.8474647 30.4325119,14.2537441 30.1653195,13.6109995" id="Fill-23"></path><polygon id="Fill-1" points="0.250079433 0.109857714 0.250079433 2.4816357 5.37000773 2.4816357 5.37000773 15.921711 7.94079015 15.921711 7.94079015 2.4816357 13.0607184 2.4816357 13.0607184 0.109857714"></polygon></g></g></g></g></svg>